<?xml version="1.0" encoding="utf-8"?>
<!-- Generator: Adobe Illustrator 21.0.0, SVG Export Plug-In . SVG Version: 6.00 Build 0)  -->
<svg version="1.1" id="Capa_1" xmlns="http://www.w3.org/2000/svg" xmlns:xlink="http://www.w3.org/1999/xlink" x="0px" y="0px"
	 viewBox="0 0 144.7 226.3" style="enable-background:new 0 0 144.7 226.3;" xml:space="preserve">
<style type="text/css">
	.st0{fill:#D3D5D6;}
	.st1{fill:#272425;}
	.st2{fill:#CB222C;}
</style>
<g>
	<ellipse class="st0" cx="73.2" cy="214.7" rx="22.7" ry="5.1"/>
	<path id="XMLID_705_" class="st1" d="M15.7,30.4c0,0-0.5,14.2,19.5,15.6c20,1.4,44.5-15.6,67.7-5.8c0,0-14.4-3.1-46.7,9.5
		C11.5,67.1,15.7,30.4,15.7,30.4z"/>
	<path id="XMLID_704_" class="st1" d="M46.7,39.9c16.7-4.9,42.2-15,61.2-2.5c19,12.5,22,29.5,18.7,49c0,0,6.1-14.8,5.9-32.3
		c-0.2-16.8-9.2-32.9-27.2-39.6c-43-16-73.7,14.6-82.2-8.3C23,6.2,19.2,48,46.7,39.9z"/>
	<g>
		<path class="st2" d="M126.6,87.1l-0.2,0.9c0.1-0.6,0.1-0.9,0.1-0.9s-9.1,33.4-12.6,39c-3.5,5.6-5.9,7.7-7.6,3.4
			c-0.3-0.8-0.7-2.3-1.4-4.1c-2.7-7.4-9.8-20.8-32.3-21.3c-22.6,0.4-29.6,13.8-32.3,21.3c-0.7,1.8-1.1,3.2-1.4,4.1
			c-1.7,4.3-4.1,2.2-7.6-3.4c-2.7-4.3-8.7-24.8-11.3-34.3l-1.3-4.7c0,0-0.2,0.3-0.5,0.7c-0.4,3.6-1.5,20.4,4.6,43.3
			c1.5,5.6,3.4,11.5,5.9,17.7c3.3,8.3,7.6,17,13.2,25.9c10.6,15.3,21.3,28.4,26.8,35c2.4,2.9,3.9,4.5,3.9,4.5s1.5-1.6,4-4.6
			c5.3-6.1,15-17.7,24.9-31.5l0,0c6.6-10,11.5-19.7,15.2-28.8c3.4-8.3,5.7-16.1,7.3-23.3c4.9-21.6,3.1-36.8,2.8-38.7
			C126.6,87.2,126.6,87.1,126.6,87.1z M47.4,125.9c5.5-8.1,15.8-8.4,21.3-7.8c2.5,0.3,5,0.3,7.5,0c5.5-0.6,15.8-0.4,21.3,7.8
			c1.5,2.3,2.2,4.4,2.3,6.3c0.5,7.8-8.5,12.5-8.5,12.5s-1.3-1.7-4.2-3.6c-2.9-2-7.3-4.2-13.4-5.2c0,0-0.9-0.3-1.3-0.2
			c-0.4-0.1-1.3,0.2-1.3,0.2c-6.1,1-10.5,3.3-13.4,5.2c-2.8,1.9-4.2,3.6-4.2,3.6s-8.9-4.7-8.5-12.5
			C45.2,130.3,45.9,128.2,47.4,125.9z"/>
		<path class="st2" d="M27.8,152.7L27.8,152.7C27.7,152.7,27.7,152.7,27.8,152.7C27.7,152.7,27.8,152.7,27.8,152.7z"/>
	</g>
</g>
</svg>
