<?xml version="1.0" encoding="utf-8"?>
<!-- Generator: Adobe Illustrator 21.0.0, SVG Export Plug-In . SVG Version: 6.00 Build 0)  -->
<svg version="1.1" id="Capa_1" xmlns="http://www.w3.org/2000/svg" xmlns:xlink="http://www.w3.org/1999/xlink" x="0px" y="0px"
	 viewBox="0 0 308.4 64" style="enable-background:new 0 0 308.4 64;" xml:space="preserve">
<style type="text/css">
	.st0{fill:#CB222C;}
</style>
<g>
	<path d="M38.2,30.5c1.8,1.2,3.2,2.8,4.2,4.8c1.1,1.9,1.6,4.1,1.6,6.4v0.1c0,1.9-0.4,3.6-1.1,5.3c-0.7,1.7-1.7,3.1-2.9,4.3
		c-1.2,1.2-2.7,2.2-4.3,2.9c-1.6,0.7-3.4,1.1-5.2,1.1H17.3l3.2-8h10c1.5,0,2.9-0.5,3.9-1.6c1.1-1.1,1.6-2.4,1.6-3.9v-0.1
		c0-1.5-0.5-2.9-1.6-3.9c-1.1-1.1-2.4-1.6-3.9-1.6h-3.3h-13v11.3v8h-8V36.1v-8V8.9h21c1.9,0,3.6,0.4,5.3,1.1
		c1.7,0.7,3.1,1.7,4.3,2.9c1.2,1.2,2.2,2.7,2.9,4.3c0.7,1.6,1.1,3.4,1.1,5.2v0.1c0,1.5-0.2,2.9-0.7,4.3C39.6,28.2,39,29.4,38.2,30.5
		z M32.8,22.4c0-1.5-0.5-2.9-1.6-3.9c-1.1-1.1-2.4-1.6-3.9-1.6h-13v11.3h13c1.5,0,2.9-0.5,3.9-1.6c1.1-1.1,1.6-2.4,1.6-3.9V22.4z"/>
	<path d="M81,22.1v33.2h-8V38.8c0-2.7-0.9-4.9-2.8-6.8c-1.9-1.9-4.1-2.8-6.8-2.8c-1.3,0-2.5,0.2-3.7,0.7c-1.2,0.5-2.2,1.2-3.1,2.1
		c-1.9,1.9-2.8,4.1-2.8,6.8c0,2.6,0.9,4.8,2.8,6.7c0.9,0.9,1.9,1.6,3.1,2.1c1.2,0.5,2.4,0.7,3.7,0.7c1.3,0,2.5-0.2,3.6-0.7l2.9,7.1
		c-2,1-4.4,1.5-7.1,1.5c-2.4,0-4.7-0.5-6.7-1.4c-2.1-0.9-3.8-2.2-5.3-3.7c-1.5-1.6-2.7-3.4-3.5-5.6c-0.8-2.1-1.3-4.4-1.3-6.8
		c0-2.4,0.4-4.7,1.3-6.8c0.8-2.1,2-4,3.5-5.6c1.5-1.6,3.3-2.8,5.3-3.7c2.1-0.9,4.3-1.4,6.7-1.4c2.2,0,4.1,0.3,5.8,1
		c1.7,0.7,3.2,1.5,4.4,2.5v-2.7H81z"/>
	<path d="M96.5,22.2c1.6-0.7,3.4-1,5.3-1v8c-2.7,0-4.9,0.9-6.8,2.8c-1.9,1.9-2.8,4.2-2.8,6.8v16.7h-8V38.7V22.1h8v2.6
		C93.5,23.7,94.9,22.8,96.5,22.2z"/>
	<path d="M122.4,21.3c2.4,0,4.7,0.5,6.7,1.4c2.1,0.9,3.8,2.2,5.3,3.7c1.5,1.6,2.7,3.5,3.5,5.6c0.8,2.1,1.3,4.4,1.3,6.8
		c0,2.4-0.4,4.6-1.3,6.8c-0.8,2.1-2,4-3.5,5.6c-1.5,1.6-3.3,2.8-5.3,3.7c-2.1,0.9-4.3,1.4-6.7,1.4c-2.6,0-5-0.5-7.1-1.5l2.9-7.1
		c1.1,0.4,2.3,0.7,3.6,0.7c2.7,0,5-0.9,6.8-2.8c1.9-1.9,2.8-4.1,2.8-6.7c0-2.7-0.9-4.9-2.8-6.8c-1.9-1.9-4.1-2.8-6.8-2.8
		c-2.6,0-4.8,0.9-6.8,2.8c-1.9,1.9-2.8,4.1-2.8,6.8v13.9v2.7h-8V8.9h8v15.9c1.3-1,2.8-1.9,4.4-2.5C118.3,21.6,120.2,21.3,122.4,21.3
		z"/>
	<path d="M166.7,42.7h-17.4c0.4,1,1.1,1.9,1.9,2.7c0.9,0.9,2,1.6,3.1,2.1c1.1,0.5,2.4,0.7,3.6,0.7c1.8,0,3.4-0.4,4.8-1.3l8.3,3.3
		c-1.6,1.9-3.5,3.3-5.8,4.3c-2.3,1-4.7,1.6-7.4,1.6c-2.4,0-4.7-0.5-6.8-1.4c-2.1-0.9-4-2.2-5.6-3.7c-1.6-1.6-2.8-3.4-3.7-5.6
		c-0.9-2.1-1.4-4.4-1.4-6.8c0-2.4,0.5-4.7,1.4-6.8c0.9-2.1,2.2-4,3.7-5.6s3.5-2.8,5.6-3.7c2.1-0.9,4.4-1.4,6.8-1.4
		c2.4,0,4.7,0.5,6.8,1.4c2.1,0.9,4,2.2,5.6,3.7c1.6,1.6,2.8,3.5,3.7,5.6c0.9,2.1,1.4,4.4,1.4,6.8c0,1.4-0.2,2.7-0.5,4H166.7z
		 M158.1,29.2c-2.6,0-4.8,0.9-6.8,2.8c-0.8,0.8-1.5,1.8-1.9,2.8h17.4c-0.4-1-1.1-1.9-1.9-2.8C163,30.1,160.7,29.2,158.1,29.2z"/>
	<path d="M190.1,22.2c1.6-0.7,3.4-1,5.3-1v8c-2.7,0-4.9,0.9-6.8,2.8c-1.9,1.9-2.8,4.2-2.8,6.8v16.7h-8V38.7V22.1h8v2.6
		C187.1,23.7,188.5,22.8,190.1,22.2z"/>
	<path class="st0" d="M231.8,25.6c0,1.7-0.2,3.3-0.7,4.8c-0.5,1.5-1.1,2.9-1.9,4.2c-0.8,1.3-1.8,2.4-3,3.5c-1.2,1-2.5,1.9-3.9,2.6
		l9.5,14.7h-9.5l-8.4-13.1h-5.4l3.3-8h3.5c2.4,0,4.4-0.9,6.2-2.6c0.8-0.8,1.4-1.8,1.9-2.9c0.4-1.1,0.7-2.2,0.7-3.3
		c0-1.1-0.2-2.3-0.7-3.3c-0.4-1.1-1.1-2-1.9-2.8c-1.7-1.7-3.8-2.6-6.2-2.6h-9.4v4.4v13.1v8v13.1h-8V42.3v-21V8.9h17.4
		c2.3,0,4.5,0.4,6.5,1.3c2,0.9,3.8,2.1,5.3,3.6c1.5,1.5,2.7,3.3,3.6,5.3C231.3,21.1,231.8,23.3,231.8,25.6z"/>
	<path class="st0" d="M257.9,42.7h-17.4c0.4,1,1.1,1.9,1.9,2.7c0.9,0.9,2,1.6,3.1,2.1c1.1,0.5,2.4,0.7,3.6,0.7
		c1.8,0,3.4-0.4,4.8-1.3l8.3,3.3c-1.6,1.9-3.5,3.3-5.8,4.3c-2.3,1-4.7,1.6-7.4,1.6c-2.4,0-4.7-0.5-6.8-1.4c-2.1-0.9-4-2.2-5.6-3.7
		c-1.6-1.6-2.8-3.4-3.7-5.6c-0.9-2.1-1.4-4.4-1.4-6.8c0-2.4,0.5-4.7,1.4-6.8c0.9-2.1,2.2-4,3.7-5.6c1.6-1.6,3.5-2.8,5.6-3.7
		c2.1-0.9,4.4-1.4,6.8-1.4c2.4,0,4.7,0.5,6.8,1.4c2.1,0.9,4,2.2,5.6,3.7c1.6,1.6,2.8,3.5,3.7,5.6c0.9,2.1,1.4,4.4,1.4,6.8
		c0,1.4-0.2,2.7-0.5,4H257.9z M249.2,29.2c-2.6,0-4.8,0.9-6.8,2.8c-0.8,0.8-1.5,1.8-1.9,2.8h17.4c-0.4-1-1.1-1.9-1.9-2.8
		C254.1,30.1,251.9,29.2,249.2,29.2z"/>
	<path class="st0" d="M303,8.8v46.5h-8V38.8c0-2.7-0.9-5-2.8-6.8c-1.9-1.9-4.1-2.8-6.7-2.8c-2.7,0-4.9,0.9-6.8,2.8
		c-1.9,1.9-2.8,4.1-2.8,6.8c0,2.6,0.9,4.8,2.8,6.7c0.9,0.9,1.9,1.6,3.1,2.1c1.2,0.5,2.4,0.7,3.7,0.7c1.3,0,2.5-0.2,3.5-0.7l2.9,7.1
		c-2,1-4.4,1.5-7,1.5c-2.4,0-4.7-0.5-6.7-1.4c-2.1-0.9-3.8-2.2-5.3-3.7c-1.5-1.6-2.7-3.4-3.5-5.6c-0.8-2.1-1.3-4.4-1.3-6.8
		c0-2.4,0.4-4.7,1.3-6.8c0.8-2.1,2-4,3.5-5.6c1.5-1.6,3.3-2.8,5.3-3.7c2.1-0.9,4.3-1.4,6.7-1.4c2.1,0,4,0.3,5.7,1
		c1.7,0.7,3.2,1.5,4.4,2.5V8.8H303z"/>
</g>
</svg>
